<?xml version="1.0" encoding="utf-8"?>
<!-- Generator: Adobe Illustrator 22.1.0, SVG Export Plug-In . SVG Version: 6.00 Build 0)  -->
<svg version="1.1" id="Layer_1" xmlns="http://www.w3.org/2000/svg" xmlns:xlink="http://www.w3.org/1999/xlink" x="0px" y="0px"
	 viewBox="0 0 533 609" style="enable-background:new 0 0 533 609;" xml:space="preserve">
<style type="text/css">
	.st0{fill:#464646;}
</style>
<g>
	<path class="st0" d="M423,51H103c-24.9,0-45,20.1-45,45v422c0,24.9,20.1,45,45,45h320c24.9,0,45-20.1,45-45V96
		C468,71.2,447.8,51,423,51z M370.4,401H232.9c-7.7,0-14.5-5.6-15.3-13.3c-1-9,6.1-16.7,14.9-16.7H370c7.7,0,14.5,5.6,15.3,13.3
		C386.3,393.3,379.2,401,370.4,401z M370,477H232.9c-7.7,0-14.5-5.6-15.3-13.3c-1-9,6.1-16.7,14.9-16.7h137.8
		c8.8,0,15.9,7.7,14.9,16.7C384.4,471.4,377.7,477,370,477z M210.5,204.4c-0.2-0.2-0.4-0.5-0.6-0.7c-5.3-6.4-13.2-16-13.2-29.7
		c0-22.4,18.2-40.6,40.6-40.6c9.4,0,18.4,3.3,25.5,9c7.8-6.3,17.8-9.7,28.3-9c21.1,1.3,37.7,19,37.9,40.1
		c0.1,13.6-7.1,23.3-13.4,30.3c-0.1,0.1-0.2,0.3-0.4,0.4l-41.4,44c-2.8,3-6.8,4.7-10.9,4.7c0,0,0,0,0,0c-4.1,0-8.1-1.7-10.9-4.7
		L210.5,204.4z M370.4,325H232.9c-7.7,0-14.5-5.6-15.3-13.3c-1-9,6.1-16.7,14.9-16.7H370c7.7,0,14.5,5.6,15.3,13.3
		C386.3,317.3,379.2,325,370.4,325z M169.8,410.1c-13.5,0-24.5-11-24.5-24.5s10.9-24.5,24.5-24.5c13.5,0,24.5,11,24.5,24.5
		S183.3,410.1,169.8,410.1z M194.2,461.6c0,13.5-10.9,24.5-24.5,24.5c-13.5,0-24.5-11-24.5-24.5s10.9-24.5,24.5-24.5
		C183.3,437.1,194.2,448.1,194.2,461.6z M169.8,334.1c-13.5,0-24.5-11-24.5-24.5s10.9-24.5,24.5-24.5c13.5,0,24.5,11,24.5,24.5
		S183.3,334.1,169.8,334.1z"/>
</g>
</svg>
