<?xml version="1.0" encoding="utf-8"?>
<!-- Generator: Adobe Illustrator 22.1.0, SVG Export Plug-In . SVG Version: 6.00 Build 0)  -->
<svg version="1.1" id="Layer_1" xmlns="http://www.w3.org/2000/svg" xmlns:xlink="http://www.w3.org/1999/xlink" x="0px" y="0px"
	 viewBox="0 0 254 219" style="enable-background:new 0 0 254 219;" xml:space="preserve">
<style type="text/css">
	.st0{fill:#464646;}
</style>
<g>
	<path class="st0" d="M62.9,197.3c-2.8-0.9-5.4-2.1-7.3-4.5c-2.3-3.1-3-6.4-2-10.1c0.3-1,0.2-1.6-0.6-2.4c-2.9-2.8-5.8-5.7-8.7-8.6
		c-3.3-3.4-3.3-7.1,0-10.4c10.9-10.9,21.8-21.9,32.8-32.8c3.3-3.3,7.1-3.3,10.4,0c4.5,4.4,8.9,8.9,13.4,13.4c0.4,0.4,0.7,1.1,1,1.6
		c1.7-1.7,3-3,4.3-4.4c-2.4-2.4-4.9-4.8-7.3-7.3c-3.5-3.6-3.5-7.2,0-10.8c0.7-0.7,1.4-1.5,2.2-2.2c3-2.8,6.7-2.9,9.7,0
		c2.3,2.2,4.6,4.5,6.8,6.8c0.3,0.3,0.7,0.6,0.9,0.8c2.9-3,5.9-5.9,8.8-8.8c0,0-0.2-0.1-0.4-0.3c-3.7-2.3-4.8-6.1-2.5-9.9
		c5.2-8.6,10.4-17.1,15.6-25.6c0.6-1,1.5-1.9,2.4-2.7c4.9-4.3,9.9-8.5,14.8-12.9c0.7-0.6,1.2-1.5,1.4-2.4c1.1-4.5,5.2-8.1,9.8-7.9
		c6.9,0.4,13.9,0.9,20.8,1.8c4.7,0.6,8.4,5.1,8.2,9.9c-0.3,6.9-1,13.8-2,20.8c-2.9-6.4-5.8-12.9-8.7-19.3c-0.1,0-0.2,0.1-0.2,0.1
		c1.1,6.4,2.1,12.7,3.2,19.1c0.3,1.5,0.6,3,0.8,4.6c0.1,1.1,0.7,1.6,1.6,2c6.7,3,13.4,5.9,20.1,9c3.6,1.6,5.3,4.9,4.4,8.3
		c-1.2,4.4-5.6,6.3-10,4.4c-5.5-2.4-11-4.9-16.5-7.4c-2.6-1.1-5.1-2.3-7.7-3.4c-2.9-1.2-4.4-3.3-4.9-6.4c-1.4-8.7-2.9-17.3-4.4-26
		c0-0.3-0.1-0.5-0.4-0.8c-0.5,7.3-0.9,14.7-1.4,22c-0.1,2.2-0.5,4.5-0.2,6.7c0.6,4.2,2.9,7.6,6.7,9.5c4.3,2.2,8.8,4.1,13.3,6.1
		c1.3,0.6,2.1,1.3,2.7,2.7c3.2,7.4,6.9,14.7,9.8,22.2c1.8,4.5,2.8,9.4,3.9,14.2c2.3,9.8,4.5,19.7,6.8,29.5c1.4,6.1-0.1,9-6.2,11.8
		c-1,0-2.1,0-3.1,0c-3.6-1.1-6-3.4-6.8-7.2c-2.2-9.7-4.3-19.5-6.6-29.2c-1-4.4-1.9-9-3.6-13.2c-3.4-8.4-7.4-16.6-11.2-24.9
		c-1.2-2.6-2.4-3.2-5.4-2.4c1.3,8.1,2.5,16.2,3.8,24.3c0.6,4,1.4,7.9-0.2,12c-4.3,10.9-8.4,21.9-12.5,33c-1.3,3.7-3.2,6.5-7.1,7.7
		c-1,0-2.1,0-3.1,0c-2.1-0.8-4.1-1.7-5.4-3.7c-1.7-2.7-1.8-5.5-0.6-8.4c4.2-11,8.3-22,12.5-33c0.3-0.8,0.5-1.7,0.4-2.5
		c-1-6.8-2.1-13.6-3.2-20.4c-0.6-3.9-1.5-7.7-1.5-11.6c0.2-7.5,1-15,1.5-22.5c0.2-3.2,0.4-6.3,0.6-9.9c-0.7,0.5-1,0.7-1.3,0.9
		c-2.7,2-4.7,4.6-6.5,7.5c-4.7,7.9-9.6,15.7-14.5,23.8c1.3,2.3,1.1,3.6-1.3,6c-18.8,18.9-37.6,37.7-56.5,56.6
		c-0.8,0.8-1.2,1.5-0.9,2.8c0.8,2.7,0.4,5.4-0.9,8c-1.8,3.6-4.9,5.4-8.7,6.4C65.2,197.3,64.1,197.3,62.9,197.3z M61.1,185.6
		c0,2,1.7,3.8,3.7,3.7c1.9,0,3.6-1.7,3.6-3.6c0-2-1.5-3.6-3.5-3.7C62.9,181.9,61.2,183.5,61.1,185.6z"/>
	<path class="st0" d="M198.7,36.1c0.1,8.4-6.8,15.4-15.3,15.4c-8.4,0-15.4-7-15.4-15.3s6.9-15.2,15.2-15.3
		C191.7,20.7,198.7,27.7,198.7,36.1z"/>
</g>
</svg>
