<?xml version="1.0" encoding="utf-8"?>
<!-- Generator: Adobe Illustrator 22.1.0, SVG Export Plug-In . SVG Version: 6.00 Build 0)  -->
<svg version="1.1" id="Layer_1" xmlns="http://www.w3.org/2000/svg" xmlns:xlink="http://www.w3.org/1999/xlink" x="0px" y="0px"
	 viewBox="0 0 273 261" style="enable-background:new 0 0 273 261;" xml:space="preserve">
<style type="text/css">
	.st0{fill:#464646;}
</style>
<g>
	<path class="st0" d="M196.8,92.7c2.1,0.2,4,0.1,5.6,0.7c2.5,0.9,3.4,3.9,1.7,6c-1.5,1.8-3.3,3.5-5.2,4.9c-1.6,1.2-2.2,2.4-2.2,4.4
		c0.1,34.8,0,69.5,0,104.3c0,1.4,0,2.8,0,4.1c-0.1,3.1-1.3,4.4-4,4.4c-2.8,0-4-1.2-4-4.4c0-34.1,0-68.2,0-102.2c0-1.1,0-2.1,0-3.8
		c-2.7,1.6-4.8,2.9-7,4.2c-3,1.7-5.8,4.6-9.5,3.2c-2.7-1-5.1-2.9-7.5-4.5c-3.8-2.6-7.5-5.4-11.2-8c-0.4-0.3-0.8-0.3-1.6-0.6
		c-1.1,4-2.1,7.9-3.1,11.8c-1.6,6.3-3,12.7-4.7,19c-0.7,2.7-0.7,4.7,1.7,6.9c6.1,5.6,11.5,11.9,17.7,17.4c5.1,4.6,4.9,10,3.9,15.7
		c-0.8,5-1.8,9.9-2.8,14.8c-1.6,7.9-3.3,15.8-5.1,23.6c-0.4,1.5-1.3,3.1-2.3,4.3c-2.1,2.7-5.8,2.3-7.3-0.8c-0.7-1.4-1.3-3.1-1.2-4.6
		c0.4-6.9,1-13.9,1.5-20.8c0.4-4.9,1-9.7,1.3-14.6c0.1-0.9-0.5-2.1-1.2-2.6c-8.9-7.6-17.8-15.2-26.8-22.6c-6.3-5.3-9.1-11.9-7.5-20
		c1-5.2,2.6-10.2,4-15.3c1.2-4.6,2.4-9.2,3.8-13.8c1.5-5.3,3.1-10.6,4.7-15.9c0.2-0.7,0.1-1.6,0.5-2.2c1.8-3.6,4-4.6,7.8-3.4
		c4.4,1.3,9,2.3,13.3,3.8c2.3,0.7,4.4,1.9,6.4,3.3c5.6,4,11,8.1,16.6,12.2c1.9,1.4,3.7,2,6,0.6c2.5-1.5,5.3-2.6,8-3.8
		c1.2-0.5,1.7-1.3,1.6-2.6c-0.1-2.8,0-5.5,0-8.3c0.1-2.6,1.7-4.5,3.9-4.5c2.2,0,3.9,1.9,4,4.4c0.1,1.9,0.1,3.8,0.2,5.7
		C196.9,93,197,93.1,196.8,92.7z"/>
	<path class="st0" d="M98.4,130.7c-5.9-0.9-11.6-2.5-16.1-6.6c-3.7-3.4-3.3-7.9-2-12.2c2.7-8.9,7.9-16.4,13.9-23.2
		c2.8-3.1,6-5.9,9.4-8.3c3.5-2.5,7.7-3.3,12.1-2.8c3.2,0.3,5.4,2.4,5,5.6c-0.4,3.4-1.5,6.8-2.5,10.1c-1.8,5.8-3.7,11.5-5.5,17.3
		c-1.4,4.5-2.7,9.1-4.3,13.6C106.9,128.3,102.5,130.9,98.4,130.7z"/>
	<path class="st0" d="M114.3,155.5c3.7,5.4,8.7,9.4,13.9,13c1.8,1.3,1.7,2.6,1.2,4.3c-1.7,7.1-5.8,13-9.7,19
		c-4,6.2-7.8,12.5-12.1,18.5c-2,2.8-4.8,5-7.4,7.2c-1.6,1.3-3.7,1.6-5.4,0.1c-1.8-1.6-1.2-3.8-0.5-5.5c3.1-7.5,6.5-15,9.8-22.4
		c2.2-4.9,4.5-9.7,6.4-14.7c0.8-1.9,0.9-4.1,1.2-6.2c0.6-4.4,1.2-8.8,1.8-13.2C113.8,155.5,114,155.5,114.3,155.5z"/>
	<path class="st0" d="M134.8,58.9c-0.3-9,7.8-16.5,16.2-16.3c9.7,0.2,16.5,7.2,16.5,16.2c0,9.6-7,16.4-16.3,16.6
		C142.3,75.5,134.7,68.3,134.8,58.9z"/>
</g>
</svg>
