<?xml version="1.0" encoding="utf-8"?>
<!-- Generator: Adobe Illustrator 22.1.0, SVG Export Plug-In . SVG Version: 6.00 Build 0)  -->
<svg version="1.1" id="Layer_1" xmlns="http://www.w3.org/2000/svg" xmlns:xlink="http://www.w3.org/1999/xlink" x="0px" y="0px"
	 viewBox="0 0 337.4 272.7" style="enable-background:new 0 0 337.4 272.7;" xml:space="preserve">
<style type="text/css">
	.st0{fill:#464646;}
</style>
<path class="st0" d="M0,45.1c6.2,0.6,11.6,0.8,16.8,1.7c1.4,0.2,2.9,2.4,3.7,4c8.5,18.2,16.9,36.5,25.4,54.8
	c0.7,1.5,1.9,3.4,3.3,3.9c22.4,9,44.9,17.8,67.3,26.6c0.6,0.2,1.3,0.2,3.3,0.6C98.9,91,78.4,46.2,57.3,0c10.4,2.3,19.8,4.3,29,6.6
	C87.8,7,89,9,90.1,10.4c43,54.4,86,108.7,128.9,163.2c3.2,4.1,7.1,6.6,11.9,8.5c29.7,11.8,59.4,23.6,88.9,35.8
	c14.9,6.2,21.4,22.3,15.4,37.3c-4,9.8-19.9,21.7-34.3,16c-31.2-12.5-62.6-24.5-93.9-36.8c-16.4-6.4-32.9-12.8-49.2-19.3
	c-28.4-11.3-56.9-22.7-85.3-34.1c-17.2-6.9-34.2-14-51.5-20.6c-5.1-2-7.6-4.8-8.2-10.3c-2.8-24.6-6-49.2-9-73.9
	C2.6,66.2,1.3,56.1,0,45.1z"/>
<path class="st0" d="M155.2,249.1c-0.1-7.9,6.3-14.5,14-14.6c7.2-0.1,14.3,7,14.4,14.4c0.1,7.8-6.2,14.2-14.1,14.3
	C161.5,263.3,155.3,257.2,155.2,249.1z"/>
<path class="st0" d="M141.6,233c0,8.2-5.9,14.1-14.2,14c-6.9,0-14-7.4-13.9-14.3c0-7.3,6.9-13.9,14.3-13.8
	C135.5,219,141.6,225.2,141.6,233z"/>
</svg>
