<?xml version="1.0" encoding="utf-8"?>
<!-- Generator: Adobe Illustrator 22.1.0, SVG Export Plug-In . SVG Version: 6.00 Build 0)  -->
<svg version="1.1" id="Layer_1" xmlns="http://www.w3.org/2000/svg" xmlns:xlink="http://www.w3.org/1999/xlink" x="0px" y="0px"
	 viewBox="0 0 597.8 636" style="enable-background:new 0 0 597.8 636;" xml:space="preserve">
<style type="text/css">
	.st0{fill:#9B9B9B;}
</style>
<g>
	<path class="st0" d="M113,50.1c-0.9,13.6,1.7,25.9-5.1,38.2c-7.8,14.4-1.4,32.4,12.3,42c13.1,9.2,31.2,8,43.3-2.9
		c12-10.7,15.2-28.8,7.5-42.8c-0.8-1.4-1.9-2.5-4-4.3c1.5,20-0.9,37.1-26.2,38.4c0-37.7,0-75.1,0-112.5c15.4-0.8,25.4,8,25.7,22.7
		c0.2,6.5,0,13,0,20.5c88.1,0,175.3,0,263.5,0c-1,13.2,2.5,25.1-4.3,37.2c-8.4,14.8-2.2,34.1,12,43.6c14.7,9.9,34,7.6,45.6-5.5
		c11.6-13,12.5-30.7,2.1-43.4c-1.4,8.7-1.3,18-4.6,25.8c-3.7,8.7-12.8,11.2-22.6,11.9c0-38,0-75.5,0-113c17.2,0.3,26,9,25.9,25.1
		c0,5.9,0,11.8,0,18.7c14.6,0,28.4,0,42.2,0c10.2,0,20.5-0.2,30.7,0c19.4,0.3,32.6,13.2,32.7,32.7c0.2,40.6,0.1,81.2,0.1,121.8
		c0,130.4,0,260.7,0,391.1c0,24.3-12.4,36.6-36.6,36.6c-169.6,0-339.1,0-508.7,0.1c-12,0-23.1-2.2-29.9-12.6
		c-3.7-5.6-6.6-13-6.6-19.6C7.8,427.3,7.8,254.6,7.9,81.9c0-16.6,11.4-30.9,27.4-31.5C60.8,49.3,86.3,50.1,113,50.1z M47.1,589.1
		c3.6,0.2,6.1,0.4,8.6,0.4c162.2,0,324.4,0,486.6,0.2c7.4,0,8.9-2.5,8.9-9.3C551,451.2,551,321.9,551,192.7c0-3-0.3-6.1-0.4-10.2
		c-4.3,0-7.9,0-11.5,0c-160.2,0-320.4,0-480.7,0c-11.7,0-11.7,0-11.7,11.3c0,128.7,0,257.4,0,386.1
		C46.7,582.6,46.9,585.4,47.1,589.1z"/>
	<path class="st0" d="M194.2,467.8c30.6,0,60.9,0,91.7,0c0,30.6,0,61.1,0,92c-30.7,0-60.9,0-91.7,0
		C194.2,529.3,194.2,499.1,194.2,467.8z"/>
	<path class="st0" d="M312,467.7c30.7,0,60.9,0,91.7,0c0,30.6,0,60.9,0,91.8c-30.3,0-60.7,0-91.7,0C312,529.2,312,499,312,467.7z"/>
	<path class="st0" d="M403.9,350.1c0,30.5,0,60.4,0,91.2c-30.6,0-61.1,0-92,0c0-30.2,0-60.4,0-91.2
		C342.4,350.1,372.6,350.1,403.9,350.1z"/>
	<path class="st0" d="M76.4,467.8c30.9,0,60.9,0,92,0c0,8.8,0,17.2,0,25.7c0,19.9,0.2,39.7-0.2,59.6c0,2.5-2.8,6.9-4.4,7
		c-28.9,0.4-57.8,0.3-87.4,0.3C76.4,529.1,76.4,498.7,76.4,467.8z"/>
	<path class="st0" d="M194.1,232.1c30.9,0,60.9,0,91.7,0c0,30.4,0,60.5,0,91.4c-30.3,0-60.7,0-91.7,0
		C194.1,293.3,194.1,263.1,194.1,232.1z"/>
	<path class="st0" d="M403.6,323.8c-30.7,0-60.9,0-91.7,0c0-30.6,0-60.8,0-91.5c30.6,0,60.8,0,91.7,0
		C403.6,262.5,403.6,292.6,403.6,323.8z"/>
	<path class="st0" d="M194,441.5c0-30.5,0-60.5,0-91.2c30.4,0,60.9,0,91.9,0c0,30.1,0,60.3,0,91.2
		C255.3,441.5,224.9,441.5,194,441.5z"/>
	<path class="st0" d="M521.4,441.8c-30.4,0-60.7,0-91.5,0c0-30.5,0-60.7,0-91.5c30.3,0,60.6,0,91.5,0
		C521.4,380.3,521.4,410.5,521.4,441.8z"/>
	<path class="st0" d="M429.9,232.3c30.7,0,60.9,0,91.6,0c0,30.6,0,60.8,0,91.5c-30.6,0-60.8,0-91.6,0
		C429.9,293.4,429.9,263.2,429.9,232.3z"/>
	<path class="st0" d="M76.4,350c30.9,0,60.8,0,91.4,0c0,30.6,0,60.8,0,91.6c-30.3,0-60.6,0-91.4,0C76.4,411.4,76.4,381,76.4,350z"/>
	<path class="st0" d="M76.3,232.2c30.7,0,60.7,0,91.4,0c0,30.5,0,60.7,0,91.4c-30.4,0-60.5,0-91.4,0
		C76.3,293.3,76.3,263.1,76.3,232.2z"/>
	<path class="st0" d="M469,558.3c-13.6-13.5-27.6-27.4-41.6-41.4c6.2-6.3,12.5-12.7,19.6-19.9c7.3,7.9,14.3,15.7,21.5,23.5
		c14-14.7,27.2-28.5,40.8-42.7c7.7,8.5,13.6,15.1,19.3,21.4C509.7,518.1,489.4,538.1,469,558.3z"/>
</g>
</svg>
