<?xml version="1.0" encoding="utf-8"?>
<!-- Generator: Adobe Illustrator 22.1.0, SVG Export Plug-In . SVG Version: 6.00 Build 0)  -->
<svg version="1.1" id="Layer_1" xmlns="http://www.w3.org/2000/svg" xmlns:xlink="http://www.w3.org/1999/xlink" x="0px" y="0px"
	 viewBox="0 0 381.8 204.7" style="enable-background:new 0 0 381.8 204.7;" xml:space="preserve">
<style type="text/css">
	.st0{fill:#464646;}
</style>
<path class="st0" d="M0,147.5c4.3-4.5,7.8-8.6,11.7-12.1c1.1-1,3.7-0.8,5.4-0.4c19.6,4.6,39.1,9.4,58.7,14.1
	c1.6,0.4,3.8,0.6,5.1-0.2c20.9-12,41.8-24.2,62.6-36.3c0.5-0.3,1-0.8,2.5-2.2C97.4,98.3,49.5,86.7,0.2,74.6
	c8.3-6.8,15.6-12.9,23.2-18.7c1.2-0.9,3.5-0.6,5.3-0.6c69.3,0,138.6-0.1,208,0.1c5.3,0,9.6-1.4,14-4c27.7-16,55.4-32,83.2-47.6
	c14.1-7.9,30.8-2.9,38.8,11.1c5.3,9.2,4.7,29.1-8.7,36.8c-29.1,16.8-58.1,33.9-87.1,50.9c-15.2,8.9-30.4,17.9-45.6,26.7
	c-26.5,15.3-53.1,30.5-79.6,45.7c-16,9.2-32.2,18.1-48.1,27.6c-4.7,2.8-8.5,3-13.2,0.1c-21.1-13.1-42.3-25.9-63.5-38.8
	C18.1,158.5,9.5,153.2,0,147.5z"/>
</svg>
