<?xml version="1.0" encoding="utf-8"?>
<!-- Generator: Adobe Illustrator 22.1.0, SVG Export Plug-In . SVG Version: 6.00 Build 0)  -->
<svg version="1.1" id="Layer_1" xmlns="http://www.w3.org/2000/svg" xmlns:xlink="http://www.w3.org/1999/xlink" x="0px" y="0px"
	 viewBox="0 0 1142.8 1080" style="enable-background:new 0 0 1142.8 1080;" xml:space="preserve">
<style type="text/css">
	.st0{fill:#464646;}
</style>
<path class="st0" d="M816.1,478.4c0-39.2,0-77.5,0-117.4c-221.3,0-440.7,0-663.1,0c0,6.5,0,13.1,0,19.7c0,125.8,0.3,251.6-0.4,377.3
	c-0.1,18,5.2,23.2,23.1,23.1c104.6-0.8,209.2-0.4,313.8-0.4c7.4,0,14.7,0,23.4,0c0,20,0,38.3,0,58.5c-6.7,0.4-13.3,1.2-19.9,1.2
	c-107.7,0.1-215.4,0.1-323.2,0c-50.8-0.1-77.1-26.4-77.1-77.2c-0.1-169.4-0.1-338.7,0-508.1c0-53.6,34-82,90.4-73.5
	c0,8.6-0.4,17.7,0.1,26.7c2,35.7,27.1,61,60.4,61.1c33.4,0.1,58.3-24.9,60.4-60.9c0.5-8.6,0.1-17.3,0.1-27.5
	c120.8,0,239.8,0,360.4,0c-0.6,27.4-2.7,56,22.3,73.8c11,7.8,26,13.5,39.3,13.9c39.1,1.1,56.3-24.8,59.9-85.5
	c40.2-14.6,84.2,11.4,87.8,53.8c2.5,29.1,1.2,58.5,1.3,87.7c0.2,44.2,0,88.4,0,132.6c0,6.7,0,13.4,0,21.1
	C854.5,478.4,836.2,478.4,816.1,478.4z"/>
<path class="st0" d="M575.2,779.9c0.5-132.4,109.1-240.3,241.1-239.5c132.1,0.8,241,110,240.3,241.1
	c-0.7,130.8-111.6,241-241.9,240.3C683,1021.1,574.6,911.6,575.2,779.9z M816.2,599.8c-99.3-0.5-181.3,80.8-181.6,180.1
	c-0.3,99.4,80.7,181.3,180,181.9c98.8,0.6,181.3-81.2,181.8-180.3C997.1,682.4,915.5,600.2,816.2,599.8z"/>
<path class="st0" d="M754.6,149.4c0,19.2,0.4,38.5-0.1,57.7c-0.5,19.2-12.3,31.3-29.6,31.2c-16.3-0.1-29-11.8-29.4-29.8
	c-0.7-39.7-0.7-79.4,0-119.2c0.3-17.8,15.3-31.8,30.8-31c15.2,0.8,27.7,14.2,28.1,31.5C754.9,109.6,754.5,129.5,754.6,149.4z"/>
<path class="st0" d="M273.3,148.5c0,18.6,0.3,37.2-0.1,55.8c-0.4,21.3-11,33.5-28.8,33.9c-17.8,0.4-29.9-11.9-30.2-32.6
	c-0.5-37.8-0.5-75.7,0-113.5c0.3-19.8,13.6-34.1,29.8-33.9c16.3,0.2,28.7,14.4,29.1,34.4C273.6,111.3,273.3,129.9,273.3,148.5z"/>
<path class="st0" d="M794.3,830.4c31.2-31.8,60.3-61.5,89.5-91.2c5.2-5.3,10.4-10.8,16-15.7c14.7-12.9,31.3-13.1,43.3-0.7
	c12,12.4,11.4,28.7-2.3,43.2c-12.4,13.1-25.4,25.7-38.2,38.4c-27.3,27.3-54.5,54.7-81.9,81.8c-19.1,18.9-33.8,18.9-52.9,0
	c-25.2-24.9-50.3-50-75.2-75.3c-15.7-15.9-17.1-33.1-4.5-45.9c12.5-12.7,30.6-11.7,46,3.7C753.5,788.1,772.3,808,794.3,830.4z"/>
<path class="st0" d="M215.6,421.1c0,39.8,0,78.6,0,117.6c39.7,0,78,0,117.2,0c0-39.7,0-78.5,0-117.6
	C293.1,421.1,254.8,421.1,215.6,421.1z M314.1,466.8c-3.9,4.2-8.1,8.2-12.1,12.2c-8.7,8.7-17.3,17.4-26.1,26c-6.1,6-10.8,6-16.8,0
	c-8-7.9-16-15.9-23.9-24c-5-5-5.4-10.5-1.4-14.6c4-4.1,9.7-3.7,14.6,1.2c7.9,7.9,13.8,14.1,19.1,19.6c9.9-10.1,19.2-19.6,28.5-29
	c1.7-1.7,3.3-3.4,5.1-5c4.7-4.1,10-4.2,13.8-0.2C318.6,457,318.4,462.2,314.1,466.8z"/>
<path class="st0" d="M396,421.1c0,39.8,0,78.6,0,117.6c39.7,0,78,0,117.2,0c0-39.7,0-78.5,0-117.6
	C473.4,421.1,435.1,421.1,396,421.1z M494.4,466.8c-3.9,4.2-8.1,8.2-12.1,12.2c-8.7,8.7-17.3,17.4-26.1,26c-6.1,6-10.8,6-16.8,0
	c-8-7.9-16-15.9-23.9-24c-5-5-5.4-10.5-1.4-14.6c4-4.1,9.7-3.7,14.6,1.2c7.9,7.9,13.8,14.1,19.1,19.6c9.9-10.1,19.2-19.6,28.5-29
	c1.7-1.7,3.3-3.4,5.1-5c4.7-4.1,10-4.2,13.8-0.2C499,457,498.8,462.2,494.4,466.8z"/>
<path class="st0" d="M576.4,421.1c0,39.8,0,78.6,0,117.6c39.7,0,78,0,117.2,0c0-39.7,0-78.5,0-117.6
	C653.8,421.1,615.5,421.1,576.4,421.1z M674.8,466.8c-3.9,4.2-8.1,8.2-12.1,12.2c-8.7,8.7-17.3,17.4-26.1,26c-6.1,6-10.8,6-16.8,0
	c-8-7.9-16-15.9-23.9-24c-5-5-5.4-10.5-1.4-14.6c4-4.1,9.7-3.7,14.6,1.2c7.9,7.9,13.8,14.1,19.1,19.6c9.9-10.1,19.2-19.6,28.5-29
	c1.7-1.7,3.3-3.4,5.1-5c4.7-4.1,10-4.2,13.8-0.2C679.3,457,679.1,462.2,674.8,466.8z"/>
<path class="st0" d="M215.6,601.5c0,39.8,0,78.6,0,117.6c39.7,0,78,0,117.2,0c0-39.7,0-78.5,0-117.6
	C293.1,601.5,254.8,601.5,215.6,601.5z M314.1,647.2c-3.9,4.2-8.1,8.2-12.1,12.2c-8.7,8.7-17.3,17.4-26.1,26c-6.1,6-10.8,6-16.8,0
	c-8-7.9-16-15.9-23.9-24c-5-5-5.4-10.5-1.4-14.6c4-4.1,9.7-3.7,14.6,1.2c7.9,7.9,13.8,14.1,19.1,19.6c9.9-10.1,19.2-19.6,28.5-29
	c1.7-1.7,3.3-3.4,5.1-5c4.7-4.1,10-4.2,13.8-0.2C318.6,637.4,318.4,642.5,314.1,647.2z"/>
<path class="st0" d="M396,601.5c0,39.8,0,78.6,0,117.6c39.7,0,78,0,117.2,0c0-39.7,0-78.5,0-117.6
	C473.4,601.5,435.1,601.5,396,601.5z M494.4,647.2c-3.9,4.2-8.1,8.2-12.1,12.2c-8.7,8.7-17.3,17.4-26.1,26c-6.1,6-10.8,6-16.8,0
	c-8-7.9-16-15.9-23.9-24c-5-5-5.4-10.5-1.4-14.6c4-4.1,9.7-3.7,14.6,1.2c7.9,7.9,13.8,14.1,19.1,19.6c9.9-10.1,19.2-19.6,28.5-29
	c1.7-1.7,3.3-3.4,5.1-5c4.7-4.1,10-4.2,13.8-0.2C499,637.4,498.8,642.5,494.4,647.2z"/>
</svg>
