<?xml version="1.0" encoding="utf-8"?>
<!-- Generator: Adobe Illustrator 22.1.0, SVG Export Plug-In . SVG Version: 6.00 Build 0)  -->
<svg version="1.1" id="Layer_1" xmlns="http://www.w3.org/2000/svg" xmlns:xlink="http://www.w3.org/1999/xlink" x="0px" y="0px"
	 viewBox="0 0 1920 1080" style="enable-background:new 0 0 1920 1080;" xml:space="preserve">
<style type="text/css">
	.st0{fill:#6A6A6A;}
</style>
<g>
	<path class="st0" d="M960.6,1040.8c-276.4-0.4-500.3-224.5-499.9-500.4c0.4-276.2,224.5-500.2,500.2-499.8
		c276.4,0.4,500.3,224.6,499.9,500.4C1460.3,817.3,1236.2,1041.2,960.6,1040.8z M960.7,940.4c220.7,0.1,399.5-178.5,399.8-399.4
		c0.3-220.8-178.5-399.8-399.6-400c-220.7-0.2-399.5,178.5-399.8,399.4C560.8,761.3,739.6,940.3,960.7,940.4z"/>
	<path class="st0" d="M910.4,290.8c33.8,0,67,0,100.6,0c0,1.8,0,3.2,0,4.7c0,96.9,0,193.7,0,290.6c0,4.9,0,4.9-4.9,4.9
		c-30.2,0-60.5,0-90.7,0c-5,0-5,0-5-4.8c0-97,0-194,0-291C910.4,293.9,910.4,292.5,910.4,290.8z"/>
	<path class="st0" d="M910.7,690.8c33.5,0,66.7,0,100.1,0c0,33.3,0,66.5,0,99.9c-33.4,0-66.6,0-100.1,0
		C910.7,757.3,910.7,724.3,910.7,690.8z"/>
</g>
</svg>
