<?xml version="1.0" encoding="utf-8"?>
<!-- Generator: Adobe Illustrator 22.1.0, SVG Export Plug-In . SVG Version: 6.00 Build 0)  -->
<svg version="1.1" id="Capa_1" xmlns="http://www.w3.org/2000/svg" xmlns:xlink="http://www.w3.org/1999/xlink" x="0px" y="0px"
	 viewBox="0 0 30.7 30.7" style="enable-background:new 0 0 30.7 30.7;" xml:space="preserve">
<style type="text/css">
	.st0{fill:#353535;}
</style>
<g>
	<path class="st0" d="M15.4,30.2L0.7,15.6c-1-1-1-2.6,0-3.5c1-1,2.6-1,3.5,0l11.1,11.1l11.1-11.1c1-1,2.6-1,3.5,0c1,1,1,2.6,0,3.5
		L15.4,30.2z M30,4.8c1-1,1-2.6,0-3.5c-1-1-2.6-1-3.5,0L15.4,12.3L4.3,1.2c-1-1-2.6-1-3.5,0c-1,1-1,2.6,0,3.5l14.6,14.6L30,4.8z"/>
</g>
</svg>
