<?xml version="1.0" encoding="utf-8"?>
<!-- Generator: Adobe Illustrator 22.1.0, SVG Export Plug-In . SVG Version: 6.00 Build 0)  -->
<svg version="1.1" id="Layer_1" xmlns="http://www.w3.org/2000/svg" xmlns:xlink="http://www.w3.org/1999/xlink" x="0px" y="0px"
	 viewBox="0 0 426.7 426.7" style="enable-background:new 0 0 426.7 426.7;" xml:space="preserve">
<style type="text/css">
	.st0{fill:#383838;}
</style>
<g>
	<g>
		<path class="st0" d="M144.6,23.1l-19.4,19.4c-2.6,2.6-3.9,5.6-3.9,9c0,3.4,1.3,6.3,3.9,8.9L278,213.3L125.2,366.2
			c-2.6,2.6-3.9,5.6-3.9,8.9c0,3.4,1.3,6.4,3.9,8.9l19.4,19.4c2.6,2.6,5.6,3.9,8.9,3.9c3.4,0,6.4-1.3,8.9-3.9l181.3-181.2
			c2.6-2.6,3.9-5.6,3.9-8.9c0-3.4-1.3-6.3-3.9-8.9L162.5,23.1c-2.6-2.6-5.6-3.9-8.9-3.9C150.2,19.3,147.2,20.5,144.6,23.1z"/>
	</g>
	<g>
	</g>
	<g>
	</g>
	<g>
	</g>
	<g>
	</g>
	<g>
	</g>
	<g>
	</g>
	<g>
	</g>
	<g>
	</g>
	<g>
	</g>
	<g>
	</g>
	<g>
	</g>
	<g>
	</g>
	<g>
	</g>
	<g>
	</g>
	<g>
	</g>
</g>
</svg>
