<?xml version="1.0" encoding="utf-8"?>
<!-- Generator: Adobe Illustrator 22.1.0, SVG Export Plug-In . SVG Version: 6.00 Build 0)  -->
<svg version="1.1" id="Layer_1" xmlns="http://www.w3.org/2000/svg" xmlns:xlink="http://www.w3.org/1999/xlink" x="0px" y="0px"
	 viewBox="0 0 426.7 426.7" style="enable-background:new 0 0 426.7 426.7;" xml:space="preserve">
<style type="text/css">
	.st0{fill:#1892D6;}
</style>
<g>
	<path class="st0" d="M213.3,418.1c-50.8,0-101.7-0.9-152.5,0.3c-33.3,0.8-52.5-24.7-52.5-52.6c0.1-32.3,0-64.7,0-97
		c0-69.2,0-138.3,0-207.5c0-15.7,4.6-29.5,16-40.7c8.1-7.9,17.9-12.3,29.2-12.3c39.3-0.1,78.7-0.1,118,0c11,0,19.6,7.4,20.9,17.6
		c1.4,10.3-4.7,19.8-14.8,22.5c-2.4,0.7-4.9,0.7-7.4,0.7c-35.2,0.1-70.3,0-105.5,0.1c-10.8,0-15.5,4.6-15.5,15.5
		c0,52.3,0,104.6,0,157c0,45.8,0,91.6,0,137.5c0,2.3,0,4.7,0.4,7c1.4,7.3,6,10.9,13.8,10.9c50.3,0,100.6,0,151,0
		c48.8,0,97.6,0,146.5,0c11.7,0,16.2-4.5,16.1-16.4c0-35.3,0-70.7,0-106c0-10.4,6.8-18.8,16.2-20.6c12.7-2.4,24.6,6.6,24.7,19.6
		c0.2,38.5,0.5,77-0.2,115.5c-0.4,23.2-14.8,41.9-34.8,47.2c-3.7,1-7.5,1.5-11.3,1.5C319,418.1,266.1,418.1,213.3,418.1z"/>
	<path class="st0" d="M375.3,81.5c-1.1,1.6-2,3.5-3.4,4.9c-47.3,47.4-94.7,94.7-142,142.2c-7.1,7.2-15.1,10.8-25.2,7.6
		c-14.8-4.7-20.3-22.8-10.8-35c1.5-2,3.3-3.7,5.1-5.5c47-47,94-94,141-141c1.4-1.4,3.2-2.4,4.8-3.6c-0.3-0.6-0.6-1.2-0.8-1.8
		c-1.5,0-3,0-4.5,0c-14.3,0-28.7,0-43,0c-12.5,0-21.8-8.9-21.8-20.5c0.1-11.7,9.3-20.4,21.9-20.5c33.2-0.1,66.3-0.1,99.5,0
		c13.2,0,22,8.7,22,21.9c0.1,33.3,0.1,66.6,0,100c0,12.4-9.2,21.8-20.8,21.6c-11.6-0.2-20.1-9.3-20.2-21.6c-0.1-15.8,0-31.6,0-47.4
		C376.6,82.4,376,81.9,375.3,81.5z"/>
</g>
</svg>
