<?xml version="1.0" encoding="utf-8"?>
<!-- Generator: Adobe Illustrator 22.1.0, SVG Export Plug-In . SVG Version: 6.00 Build 0)  -->
<svg version="1.1" id="Capa_1" xmlns="http://www.w3.org/2000/svg" xmlns:xlink="http://www.w3.org/1999/xlink" x="0px" y="0px"
	 viewBox="0 0 330 330" style="enable-background:new 0 0 330 330;" xml:space="preserve">
<style type="text/css">
	.st0{fill:#551400;}
</style>
<g>
	<path class="st0" d="M305.8,161.4c-10.3-9.8-24.4-12.1-36.9-14.2c-2-0.3-3.9-0.7-5.8-1c-1.4-0.4-3.2-0.8-5-1.2
		c-16.7-3.9-28.4-7.7-28.5-21.3c0-9,2.9-17.3,6.1-26.1c3.6-10.1,7.3-20.6,6.7-32.7c-1.1-21.7-10.3-40.6-24.7-50.5
		C212,9.7,204.5,7,197.3,7c-10.6,0-18.6,5.8-21.8,15.9c-2.3,6.8-1.9,13.4-1.5,20.4c0.1,1.7,0.2,3.5,0.2,5.3
		c0.4,9.6-0.8,17.6-3.6,25.1c-5.3,15-16,29-24.8,39.6l-4.8,6c-6.7,8.4-13.6,17.1-21.4,24.1c-3.9,3-8,4.1-13.2,5.3
		c-1.5,0.1-92.3,1-92.3,1v133.4c0,0,71.2-0.1,75.2-0.3c3.5-0.2,6.9-0.4,10-0.4h1.4c2.9,0.6,5.9,0.9,9,1.3c2.7,0.3,5.6,0.6,8.6,1.2
		c3.3,0.6,6.8,3.9,10.2,7.1c1.9,1.8,3.8,3.6,5.7,4.9c1.9,1.4,3.8,2.7,5.7,4.1c5.8,4.2,11.9,8.6,18.7,11.7c8.4,3.6,17.7,4.8,26.8,6
		c4.4,0.6,8.7,1.1,12.9,1.9c2.7,0.3,5.1,0.6,7.4,0.8c7.1,0.8,14.4,1.6,21.7,1.6c4.9,0,9.3-0.4,13.3-1.2
		c14.4-4.1,23.6-15.8,23.6-29.2c7.3-2.9,13.9-9,18-16.9c3.7-7,4.9-14.5,3.6-21.2c13.9-9.1,21.1-26.2,17.2-40.9
		c6.2-4.2,10.4-11.3,11.9-19.9C317.3,181.8,313.6,169.1,305.8,161.4z M296.4,188.1c-0.5,4.1-2.4,9.2-8.6,10.3
		c-3.4,1-5.6,2.9-6.7,5.7c-1.3,3.3-0.8,7.5,1.3,11.1c2.3,2.7,2.6,8.3,1.3,13.2c-1.8,5.8-6.1,9.9-12.6,12.1c-2.8,0.3-5.3,2.3-6.7,5.2
		c-1.6,3.4-1.2,7,0.9,9.5c1.9,2.7,1.5,8.7-1,13.6c-2,3.9-4.9,6.2-7.7,6.2c-0.4,0-0.8,0-1.2-0.1l-0.4-0.1h-0.5
		c-3.4,0-7.9,1.5-10.2,4.9c-1.5,2.3-1.7,5-0.6,7.5c1.4,3.7,1.2,7.9-0.5,10.7c-1.2,2.1-3.2,3.3-5.9,3.6c-4.7,1.3-9.4,1.3-14,1.3
		c-13.5-1.2-27.9-2.5-41.8-5l-6.6-1.5c-3.4-0.8-6.8-1.5-9.9-2.3c-5-2.4-10.5-6.6-15.9-10.7c-1.8-1.3-3.5-2.7-5.2-3.9
		c-1.3-1-2.6-2.3-4-3.6c-3.5-3.3-7.5-7.1-12.4-8.4c-4.6-2.9-9.6-2.9-13.6-2.9c-12.9-1.2-19-5.9-22.2-17.2c-3.1-11.4-3.2-24.5-3-35.8
		l0-2.5c0.1-10.6,0.3-24,5.7-33.6c2.7-4.6,8.1-5.6,14.4-6.8c8.7-1.4,15.5-4.3,21.9-9.2c0.9-0.3,1.8-1,2.5-2.3
		c2.6-1.8,4.7-4.4,6.7-6.7c10.3-11.1,19.7-22.8,27.1-33.5c1.7-2.6,3.5-5,5.2-7.5c7.9-11.3,16.1-22.9,19.5-37.3
		c2.5-10.6,2.2-19.7,1.7-30.6l-0.1-1.6c-0.4-6.6-0.5-13.7,3.2-14.2c0.3,0,0.6-0.1,0.9-0.1c6,0,13.7,7.6,18.2,14.7
		c4.7,9,7.2,18.4,6.9,26.9c-0.2,8.8-3.1,17.2-6.2,26c-3.6,10.5-7.3,21.3-6.5,33.1c1.2,16,14,29.9,31.7,34.5c5.2,1.3,10.7,2.2,16,3.1
		c9.9,1.6,20.1,3.3,28.5,8C291.7,174.8,297.5,180.6,296.4,188.1z"/>
</g>
</svg>
