<?xml version="1.0" encoding="utf-8"?>
<!-- Generator: Adobe Illustrator 22.1.0, SVG Export Plug-In . SVG Version: 6.00 Build 0)  -->
<svg version="1.1" id="Capa_1" xmlns="http://www.w3.org/2000/svg" xmlns:xlink="http://www.w3.org/1999/xlink" x="0px" y="0px"
	 viewBox="0 0 457.8 457.8" style="enable-background:new 0 0 457.8 457.8;" xml:space="preserve">
<style type="text/css">
	.st0{fill:#464646;}
</style>
<g id="XMLID_236_">
	<circle id="XMLID_518_" class="st0" cx="369" cy="39.8" r="39.8"/>
	<path id="XMLID_1413_" class="st0" d="M445.4,215.9l-57-25.4l0,0l-11.4-67.7l24.4,54.3l4.5-52.7c1.3-14.8-9.7-27.8-24.5-29.1
		l-47.8-4.1c-14.7-1.3-27.7,9.6-29.1,24.2L260.9,153c-1.4,1.2-2.6,2.7-3.6,4.3l-41.5,67.9c-5.2,8.5-2.5,19.6,6,24.8
		c1,0.6,2,1.1,3,1.5l-23.3,23.3l-21-21c-6.7-6.7-17.6-6.7-24.3,0l-8,8c-6.7,6.7-6.7,17.6,0,24.3l21,21l-10.6,10.6l-39.7-39.7
		c-6.7-6.7-17.6-6.7-24.3,0L6.7,365.7C0,372.4,0,383.3,6.7,390l26.4,26.4c-1.4,3.5-2.2,7.3-2.2,11.2c0,16.6,13.5,30.2,30.2,30.2
		s30.2-13.5,30.2-30.2c0-3.9-0.7-7.6-2.1-11L241.3,264c4-4,4-10.5,0-14.5c2-1.4,3.8-3.2,5.1-5.4l40-65.5l13.6-11.7
		c0,0-6.2,87.4-6.1,87.8l12.9,82.3l-34.5,91.5c-4.2,11.2,1.4,23.7,12.6,27.9c11.2,4.2,23.7-1.4,27.9-12.6l36.5-96.9
		c1.3-3.5,1.7-7.3,1.1-11l-12.4-78.8l11.3,1l34.8,76.9l24.1,105.9c2.7,11.7,14.3,19,25.9,16.3c11.7-2.7,19-14.3,16.3-25.9l-24.6-108
		c-0.3-1.4-0.8-2.8-1.4-4.1l-29.8-65.9l0.1-1.4l-37.2-16.6c-15.2-6.8-21.2-22.1-20.7-30.4l4.7-73.6l12.6,74.7l0,0
		c1,6,4.9,11,10.4,13.5l65.9,29.4c9.3,4.1,19.9-0.2,23.8-9.1C458.6,230.6,454.5,220,445.4,215.9z M61.2,437.2
		c-5.3,0-9.6-4.3-9.6-9.6c0-5.3,4.3-9.6,9.6-9.6s9.6,4.3,9.6,9.6C70.8,432.9,66.4,437.2,61.2,437.2z"/>
</g>
</svg>
